<svg viewBox="0 0 512 512" fill="none" xmlns="http://www.w3.org/2000/svg">
<path d="M456.833 32.133H431.667V15C431.667 6.716 424.951 0 416.667 0C408.383 0 401.667 6.716 401.667 15V32.133H367.4V15C367.4 6.716 360.684 0 352.4 0C344.116 0 337.4 6.716 337.4 15V32.133H303.133V15C303.133 6.716 296.417 0 288.133 0C279.849 0 273.133 6.716 273.133 15V32.133H238.865V15C238.865 6.716 232.149 0 223.865 0C215.581 0 208.865 6.716 208.865 15V32.133H174.6V15C174.6 6.716 167.884 0 159.6 0C151.316 0 144.6 6.716 144.6 15V32.133H110.333V15C110.333 6.716 103.617 0 95.333 0C87.049 0 80.333 6.716 80.333 15V32.133H55.167C24.748 32.133 0 56.881 0 87.3V456.833C0 487.252 24.748 512 55.167 512H400.6C462.026 512 512 462.026 512 400.6V87.3C512 56.881 487.252 32.133 456.833 32.133V32.133ZM55.167 62.133H80.333V79.267C80.333 87.551 87.049 94.267 95.333 94.267C103.617 94.267 110.333 87.551 110.333 79.267V62.133H144.6V79.267C144.6 87.551 151.316 94.267 159.6 94.267C167.884 94.267 174.6 87.551 174.6 79.267V62.133H208.867V79.267C208.867 87.551 215.583 94.267 223.867 94.267C232.151 94.267 238.867 87.551 238.867 79.267V62.133H273.135V79.267C273.135 87.551 279.851 94.267 288.135 94.267C296.419 94.267 303.135 87.551 303.135 79.267V62.133H337.4V79.267C337.4 87.551 344.116 94.267 352.4 94.267C360.684 94.267 367.4 87.551 367.4 79.267V62.133H401.667V79.267C401.667 87.551 408.383 94.267 416.667 94.267C424.951 94.267 431.667 87.551 431.667 79.267V62.133H456.833C470.71 62.133 482 73.423 482 87.3V128.533H30V87.3C30 73.423 41.29 62.133 55.167 62.133V62.133ZM400.6 482C355.716 482 319.201 445.484 319.201 400.6C319.201 355.716 355.717 319.201 400.6 319.201C445.484 319.201 482 355.717 482 400.6C482 445.484 445.484 482 400.6 482ZM400.6 289.2C339.174 289.2 289.2 339.174 289.2 400.6C289.2 432.693 302.846 461.654 324.634 482H55.167C41.29 482 30 470.71 30 456.833V158.533H482V324.635C461.653 302.847 432.692 289.2 400.6 289.2Z" fill="#FF6501"/>
<path d="M159.6 208.87C155.65 208.87 151.78 210.47 148.99 213.26C146.2 216.05 144.6 219.92 144.6 223.87C144.6 227.809 146.2 231.68 148.99 234.47C151.79 237.26 155.65 238.86 159.6 238.86C163.55 238.86 167.41 237.26 170.21 234.47C173 231.68 174.6 227.81 174.6 223.87C174.6 219.92 173 216.05 170.21 213.26C167.42 210.47 163.55 208.87 159.6 208.87V208.87Z" fill="#FF6501"/>
<path d="M223.87 208.87C219.92 208.87 216.05 210.47 213.26 213.26C210.47 216.05 208.87 219.92 208.87 223.87C208.87 227.809 210.47 231.68 213.26 234.47C216.05 237.26 219.92 238.86 223.87 238.86C227.811 238.86 231.68 237.26 234.47 234.47C237.26 231.68 238.87 227.81 238.87 223.87C238.87 219.92 237.26 216.05 234.47 213.26C231.68 210.47 227.81 208.87 223.87 208.87Z" fill="#FF6501"/>
<path d="M288.13 208.87C284.18 208.87 280.32 210.47 277.53 213.26C274.74 216.05 273.14 219.92 273.14 223.87C273.14 227.819 274.74 231.68 277.53 234.47C280.32 237.26 284.19 238.86 288.13 238.86C292.08 238.86 295.95 237.26 298.74 234.47C301.53 231.68 303.13 227.81 303.13 223.87C303.13 219.92 301.53 216.05 298.74 213.26C295.95 210.47 292.08 208.87 288.13 208.87Z" fill="#FF6501"/>
<path d="M352.4 208.87C348.45 208.87 344.58 210.47 341.79 213.26C339 216.05 337.4 219.92 337.4 223.87C337.4 227.809 339 231.68 341.79 234.47C344.59 237.26 348.45 238.86 352.4 238.86C356.35 238.86 360.22 237.26 363.01 234.47C365.8 231.68 367.4 227.81 367.4 223.87C367.4 219.92 365.8 216.05 363.01 213.26C360.22 210.47 356.35 208.87 352.4 208.87Z" fill="#FF6501"/>
<path d="M416.67 208.87C412.72 208.87 408.85 210.47 406.06 213.26C403.27 216.05 401.67 219.92 401.67 223.87C401.67 227.809 403.27 231.68 406.06 234.47C408.849 237.26 412.72 238.86 416.67 238.86C420.62 238.86 424.48 237.26 427.27 234.47C430.06 231.68 431.67 227.81 431.67 223.87C431.67 219.92 430.06 216.05 427.27 213.26C424.48 210.47 420.62 208.87 416.67 208.87Z" fill="#FF6501"/>
<path d="M95.3301 273.13C91.3801 273.13 87.5201 274.73 84.7301 277.52C81.9301 280.32 80.3301 284.19 80.3301 288.13C80.3301 292.08 81.9301 295.95 84.7301 298.74C87.5201 301.53 91.3801 303.13 95.3301 303.13C99.2801 303.13 103.15 301.53 105.94 298.74C108.73 295.95 110.33 292.08 110.33 288.13C110.33 284.19 108.73 280.319 105.94 277.52C103.15 274.729 99.2801 273.13 95.3301 273.13Z" fill="#FF6501"/>
<path d="M159.6 273.13C155.65 273.13 151.78 274.73 148.99 277.52C146.2 280.32 144.6 284.19 144.6 288.13C144.6 292.08 146.2 295.95 148.99 298.74C151.79 301.53 155.65 303.13 159.6 303.13C163.55 303.13 167.41 301.53 170.21 298.74C173 295.95 174.6 292.08 174.6 288.13C174.6 284.18 173 280.319 170.21 277.52C167.41 274.729 163.55 273.13 159.6 273.13V273.13Z" fill="#FF6501"/>
<path d="M223.87 273.13C219.92 273.13 216.05 274.73 213.26 277.52C210.47 280.32 208.87 284.18 208.87 288.13C208.87 292.08 210.47 295.95 213.26 298.74C216.05 301.53 219.92 303.13 223.87 303.13C227.811 303.13 231.68 301.53 234.47 298.74C237.26 295.95 238.87 292.08 238.87 288.13C238.87 284.19 237.26 280.319 234.47 277.52C231.68 274.729 227.82 273.13 223.87 273.13Z" fill="#FF6501"/>
<path d="M288.13 273.13C284.18 273.13 280.32 274.73 277.53 277.52C274.74 280.32 273.13 284.19 273.13 288.13C273.13 292.08 274.74 295.95 277.53 298.74C280.32 301.53 284.18 303.13 288.13 303.13C292.08 303.13 295.95 301.53 298.74 298.74C301.53 295.95 303.13 292.08 303.13 288.13C303.13 284.19 301.53 280.319 298.74 277.52C295.95 274.729 292.08 273.13 288.13 273.13Z" fill="#FF6501"/>
<path d="M95.3301 337.399C91.3901 337.399 87.5201 339 84.7301 341.79C81.9401 344.58 80.3301 348.45 80.3301 352.399C80.3301 356.349 81.9401 360.21 84.7301 363.009C87.5201 365.799 91.3901 367.399 95.3301 367.399C99.2801 367.399 103.15 365.799 105.94 363.009C108.73 360.209 110.33 356.349 110.33 352.399C110.33 348.45 108.73 344.589 105.94 341.79C103.15 339 99.2801 337.399 95.3301 337.399Z" fill="#FF6501"/>
<path d="M159.6 337.399C155.65 337.399 151.78 339 148.99 341.79C146.2 344.58 144.6 348.45 144.6 352.399C144.6 356.349 146.2 360.21 148.99 363.009C151.79 365.799 155.65 367.399 159.6 367.399C163.55 367.399 167.41 365.799 170.21 363.009C173 360.209 174.6 356.349 174.6 352.399C174.6 348.45 173 344.58 170.21 341.79C167.41 339 163.55 337.399 159.6 337.399V337.399Z" fill="#FF6501"/>
<path d="M223.87 337.399C219.92 337.399 216.05 339 213.26 341.79C210.47 344.58 208.87 348.45 208.87 352.399C208.87 356.349 210.47 360.21 213.26 363.009C216.05 365.799 219.92 367.399 223.87 367.399C227.811 367.399 231.68 365.799 234.47 363.009C237.27 360.209 238.87 356.349 238.87 352.399C238.87 348.45 237.27 344.58 234.47 341.79C231.68 339 227.82 337.399 223.87 337.399Z" fill="#FF6501"/>
<path d="M95.3301 401.67C91.3801 401.67 87.5201 403.27 84.7301 406.06C81.9301 408.85 80.3301 412.72 80.3301 416.661C80.3301 420.61 81.9301 424.48 84.7301 427.27C87.5201 430.06 91.3901 431.67 95.3301 431.67C99.2801 431.67 103.14 430.06 105.94 427.27C108.73 424.48 110.33 420.61 110.33 416.661C110.33 412.721 108.73 408.85 105.94 406.06C103.15 403.27 99.2801 401.67 95.3301 401.67Z" fill="#FF6501"/>
<path d="M159.6 401.67C155.65 401.67 151.79 403.27 148.99 406.06C146.2 408.85 144.6 412.72 144.6 416.661C144.6 420.61 146.2 424.48 148.99 427.27C151.79 430.06 155.65 431.67 159.6 431.67C163.55 431.67 167.41 430.06 170.21 427.27C173 424.48 174.6 420.61 174.6 416.661C174.6 412.721 173 408.85 170.21 406.06C167.41 403.27 163.55 401.67 159.6 401.67V401.67Z" fill="#FF6501"/>
<path d="M223.87 401.67C219.92 401.67 216.05 403.27 213.26 406.06C210.47 408.85 208.87 412.72 208.87 416.661C208.87 420.61 210.47 424.48 213.26 427.27C216.05 430.06 219.92 431.67 223.87 431.67C227.811 431.67 231.68 430.06 234.47 427.27C237.26 424.48 238.87 420.61 238.87 416.661C238.87 412.721 237.26 408.85 234.47 406.06C231.68 403.27 227.81 401.67 223.87 401.67Z" fill="#FF6501"/>
<path d="M432.733 385.6H415.6V368.467C415.6 360.183 408.884 353.467 400.6 353.467C392.316 353.467 385.6 360.183 385.6 368.467V400.6C385.6 408.884 392.316 415.6 400.6 415.6H432.734C441.018 415.6 447.734 408.884 447.734 400.6C447.733 392.315 441.018 385.6 432.733 385.6V385.6Z" fill="#FF6501"/>
</svg>
