<svg viewBox="0 0 512 512" fill="none" xmlns="http://www.w3.org/2000/svg">
<g clip-path="url(#clip0)">
<path d="M498.259 366.543L383.755 252.011C405.24 203.235 396.047 144.093 356.16 104.197C304.192 52.2163 220.073 52.2093 168.099 104.197C116.252 156.055 116.252 240.435 168.099 292.293C209.298 333.502 269.677 341.348 317.878 319.065L431.797 433.011C450.164 451.382 479.897 451.384 498.263 433.007C516.58 414.683 516.578 384.867 498.259 366.543V366.543ZM189.315 271.081C149.162 230.919 149.162 165.571 189.315 125.409C229.556 85.1568 294.694 85.1498 334.943 125.409C375.096 165.571 375.096 230.919 334.943 271.081C294.7 311.334 229.562 311.34 189.315 271.081ZM477.045 411.798C470.404 418.442 459.656 418.445 453.013 411.799L344.175 302.935C353.121 295.892 361.094 287.806 368.018 278.703L477.042 387.754C483.67 394.384 483.671 405.169 477.045 411.798V411.798Z" fill="#FF6501"/>
<path d="M15.0007 244.958H78.9655C87.2499 244.958 93.9662 238.242 93.9662 229.957C93.9662 221.673 87.2499 214.957 78.9655 214.957H15.0007C6.7163 214.957 0 221.673 0 229.957C0 238.242 6.7163 244.958 15.0007 244.958Z" fill="#FF6501"/>
<path d="M15.0007 308.961H102.953C111.237 308.961 117.953 302.245 117.953 293.96C117.953 285.676 111.237 278.959 102.953 278.959H15.0007C6.7163 278.959 0 285.676 0 293.96C0 302.245 6.7163 308.961 15.0007 308.961Z" fill="#FF6501"/>
<path d="M15.0007 372.964H166.918C175.203 372.964 181.919 366.247 181.919 357.963C181.919 349.679 175.203 342.962 166.918 342.962H15.0007C6.7163 342.962 0 349.679 0 357.963C0 366.247 6.7163 372.964 15.0007 372.964Z" fill="#FF6501"/>
<path d="M342.824 406.965H15.0007C6.7163 406.965 0 413.682 0 421.966C0 430.25 6.7163 436.967 15.0007 436.967H342.824C351.109 436.967 357.825 430.25 357.825 421.966C357.825 413.682 351.109 406.965 342.824 406.965Z" fill="#FF6501"/>
</g>
<defs>
<clipPath id="clip0">
<rect width="512" height="512" fill="white"/>
</clipPath>
</defs>
</svg>
