<svg viewBox="0 0 512 512" fill="none" xmlns="http://www.w3.org/2000/svg">
<path d="M352.459 220C352.459 208.954 343.505 200 332.459 200H126.459C115.413 200 106.459 208.954 106.459 220C106.459 231.046 115.413 240 126.459 240H332.459C343.505 240 352.459 231.046 352.459 220Z" fill="#FF6501"/>
<path d="M126.459 280C115.413 280 106.459 288.954 106.459 300C106.459 311.046 115.413 320 126.459 320H251.57C262.616 320 271.57 311.046 271.57 300C271.57 288.954 262.616 280 251.57 280H126.459Z" fill="#FF6501"/>
<path d="M173.459 472H106.57C84.514 472 66.57 454.056 66.57 432V80C66.57 57.944 84.514 40 106.57 40H352.459C374.515 40 392.459 57.944 392.459 80V203C392.459 214.046 401.413 223 412.459 223C423.505 223 432.459 214.046 432.459 203V80C432.459 35.888 396.571 0 352.459 0H106.57C62.458 0 26.57 35.888 26.57 80V432C26.57 476.112 62.458 512 106.57 512H173.459C184.505 512 193.459 503.046 193.459 492C193.459 480.954 184.505 472 173.459 472Z" fill="#FF6501"/>
<path d="M467.884 289.572C444.49 266.178 406.426 266.177 383.047 289.556L273.244 399.116C270.912 401.443 269.192 404.309 268.234 407.461L244.321 486.186C242.201 493.166 244.048 500.745 249.142 505.966C252.958 509.877 258.142 512 263.459 512C265.238 512 267.034 511.762 268.797 511.273L349.522 488.912C352.844 487.992 355.872 486.229 358.312 483.793L467.885 374.426C491.279 351.032 491.279 312.968 467.884 289.572ZM333.776 451.768L293.164 463.018L305.049 423.889L379.138 349.964L407.428 378.254L333.776 451.768ZM439.615 346.13L435.74 349.997L407.455 321.712L411.317 317.858C419.115 310.06 431.803 310.06 439.601 317.858C447.399 325.656 447.399 338.344 439.615 346.13Z" fill="#FF6501"/>
<path d="M332.459 120H126.459C115.413 120 106.459 128.954 106.459 140C106.459 151.046 115.413 160 126.459 160H332.459C343.505 160 352.459 151.046 352.459 140C352.459 128.954 343.505 120 332.459 120Z" fill="#FF6501"/>
</svg>
