<svg viewBox="0 0 31 30" fill="none" xmlns="http://www.w3.org/2000/svg">
<path d="M29.0145 23.691L20.0121 14.6865C21.7013 10.8517 20.9785 6.20193 17.8426 3.06524C13.7568 -1.02147 7.14337 -1.02202 3.05713 3.06524C-1.01904 7.14235 -1.01904 13.7763 3.05713 17.8534C6.29627 21.0933 11.0433 21.7102 14.8329 19.9583L23.7892 28.9167C25.2332 30.3611 27.5708 30.3612 29.0148 28.9164C30.4548 27.4757 30.4547 25.1316 29.0145 23.691ZM4.72513 16.1857C1.56831 13.0282 1.56831 7.89054 4.72513 4.73293C7.88896 1.56832 13.0101 1.56777 16.1745 4.73293C19.3313 7.89054 19.3313 13.0282 16.1745 16.1857C13.0106 19.3504 7.88943 19.3509 4.72513 16.1857ZM27.3465 27.249C26.8245 27.7713 25.9794 27.7715 25.4572 27.2491L16.9003 18.6901C17.6036 18.1364 18.2305 17.5006 18.7748 16.785L27.3464 25.3586C27.8674 25.8798 27.8675 26.7278 27.3465 27.249Z" fill="#FF6501"/>
</svg>
