<svg viewBox="0 0 512 512" fill="none" xmlns="http://www.w3.org/2000/svg">
<path d="M132.359 151.625H46.0469C36.3711 151.625 28.5 159.496 28.5 169.172V494.457C28.5 504.129 36.3711 512 46.0469 512H132.359C142.031 512 149.902 504.129 149.902 494.457V169.172C149.902 159.496 142.031 151.625 132.359 151.625V151.625ZM119.859 481.957H58.543V181.668H119.859V481.957Z" fill="#FF6501"/>
<path d="M89.2031 0C55.4531 0 28 27.4531 28 61.1992C28 94.9492 55.4531 122.402 89.2031 122.402C122.945 122.402 150.402 94.9492 150.402 61.1992C150.402 27.4531 122.949 0 89.2031 0ZM89.2031 92.3594C72.0195 92.3594 58.043 78.3828 58.043 61.1992C58.043 44.0195 72.0195 30.043 89.2031 30.043C106.383 30.043 120.359 44.0195 120.359 61.1992C120.359 78.3789 106.383 92.3594 89.2031 92.3594Z" fill="#FF6501"/>
<path d="M429.047 189.762C408.414 172.539 382.184 163.328 355.215 163.828C338.465 164.137 322.098 168.176 307.266 175.488V168.387C307.266 159.133 299.762 151.629 290.508 151.629H202.625C193.371 151.629 185.867 159.133 185.867 168.387V495.242C185.867 504.5 193.371 512 202.625 512H292.242C300.539 512 307.266 505.273 307.266 496.98V302.102C307.266 285.418 320.32 271.301 336.992 270.805C354.32 270.293 368.578 284.234 368.578 301.449V497.293C368.578 505.414 375.164 512 383.285 512H469.414C477.535 512 484.121 505.414 484.121 497.293V307.406C484.121 261.859 464.047 218.977 429.047 189.762V189.762ZM454.078 481.957H398.625V301.449C398.625 267.98 371.395 240.75 337.922 240.75C304.453 240.75 277.223 267.98 277.223 301.449V481.957H215.91V181.668H277.223V203.5H277.242C277.238 207.039 278.469 210.594 281 213.457C286.496 219.668 295.992 220.246 302.203 214.746C317.004 201.645 336.027 194.23 355.77 193.863C375.531 193.488 394.711 200.23 409.797 212.824C437.941 236.316 454.078 270.789 454.078 307.406V481.957Z" fill="#FF6501"/>
</svg>
