<svg viewBox="0 0 512 512" fill="none" xmlns="http://www.w3.org/2000/svg">
<g clip-path="url(#clip0)">
<path d="M194.816 467.711C109.363 467.711 41.824 452.781 9.5115 426.758L8.88259 426.25L8.31228 425.68C0.636499 418 -1.87913 407.926 1.41775 398.043L1.71853 397.223C5.71853 387.219 15.5193 380.484 26.1404 380.422C47.9998 380.043 67.1248 377.437 84.4802 372.379C56.7967 359.504 37.5662 337.211 26.1248 304.945C22.2771 294.883 25.5974 283.727 34.4646 277.074C36.6521 275.43 39.1248 274.188 41.742 273.355C26.3592 255.598 14.9959 235.391 8.63259 214.02L8.43337 213.355L8.29665 212.676C6.1365 201.867 10.9685 190.754 19.824 185.969C23.5388 183.836 27.574 182.73 31.6248 182.637C27.2576 173.23 24.0818 163.574 22.199 153.859C16.9724 126.938 21.2849 99.9492 35.0115 73.6445L38.1873 67.293C40.7302 62.2109 45.5896 58.6406 51.1912 57.7305C56.7927 56.8242 62.5349 58.6758 66.5467 62.6875L72.3318 68.4805C118.035 116.395 158.972 139.129 229.75 154.684C232.91 127.516 244.656 102.262 263.605 82.3867C286.156 58.7383 316.269 45.4688 348.398 45.0156H348.609C372.051 45.0156 401.129 58.3984 418.715 67.8359C433.801 62.8984 451.976 55.2539 470.836 47.1719C479.66 43.0312 490.539 44.9258 497.476 51.8633C504.277 58.6641 506.164 68.2539 502.554 77.5742C501.183 81.3906 499.629 85.1367 497.898 88.8008C500.48 89.9844 502.844 91.5898 504.84 93.5859C510.875 99.6211 513.39 109.066 511.246 117.652L511.015 118.469C503.789 141.758 489.906 160.727 471.547 172.633C468.48 335.918 345.519 467.711 194.816 467.711V467.711ZM38.3045 410.035C68.7537 427.262 126.781 437.684 194.816 437.684C260.226 437.684 321.953 409.602 368.621 358.609C415.672 307.199 441.582 238.93 441.582 166.375V165.559C441.582 158.988 445.199 152.992 451.019 149.906C462.828 143.652 472.39 133 478.609 119.379C472.195 120.391 465.676 117.816 461.679 112.449C457.035 106.211 456.984 97.7852 461.551 91.4922C464.015 88.0937 466.25 84.5586 468.242 80.9023C451.957 87.7422 436.492 93.875 423.066 97.9492C418.187 99.4258 412.75 98.8477 408.293 96.3594C384.39 83.043 362.129 75.082 348.707 75.043C299.179 75.8008 258.91 118.219 258.91 169.648C258.91 174.965 256.551 179.949 252.445 183.328C248.336 186.703 242.992 188.055 237.773 187.023C156.164 170.945 107.804 146.836 57.5154 96.3008C50.3084 113.57 48.3396 130.965 51.6717 148.141C55.0506 165.539 64.0388 182.973 77.6677 198.555C82.8474 204.469 83.5349 212.93 79.3787 219.605C75.2381 226.258 67.367 229.367 59.8006 227.34C53.8865 225.754 48.449 223.672 43.2927 220.996C53.7967 243.813 71.8631 264.914 94.574 280.477C101.156 284.988 103.906 293.398 101.265 300.93C98.6209 308.473 91.2342 313.328 83.2498 312.734C74.5506 312.09 66.8435 310.437 59.7498 307.652C72.4842 333.586 92.8318 347.855 124.179 353.309C131.644 354.609 137.457 360.504 138.644 367.977C139.836 375.449 136.137 382.855 129.445 386.406C102.726 400.57 73.5232 408.172 38.3045 410.035V410.035Z" fill="#FF6501"/>
</g>
<defs>
<clipPath id="clip0">
<rect width="512" height="512" fill="white"/>
</clipPath>
</defs>
</svg>
